#!OML:ASF I:\golf\golf\golf 2\Subject 1\2002-09-07\Subject1.ASF
:FULLY-SPECIFIED
:DEGREES
458
root 1.74716 16.8464 -2.6032 22.7726 -3.56156 -2.40168
lowerback 24.7191 6.86555 -4.02346
upperback 12.4272 8.02128 6.00092
thorax -1.28712 3.58795 6.72548
lowerneck -14.923 -3.39442 -2.13696
upperneck 22.1656 -1.94798 -8.92955
head 9.41732 -2.02383 -2.96672
rclavicle -4.29375e-014 -1.35174e-014
rhumerus 12.2343 6.41666 -72.1418
rradius 31.3305
rwrist -11.7969
rhand -29.327 5.51334
rfingers 7.12502
rthumb -2.66751 -24.4497
lclavicle -4.29375e-014 -1.35174e-014
lhumerus -24.3763 -39.7301 99.5583
lradius 71.9525
lwrist -4.5244
lhand -29.4017 25.0008
lfingers 7.12502
lthumb -2.73964 54.9629
rfemur -56.1794 -24.7405 28.2681
rtibia 69.3721
rfoot -18.0022 5.10373
rtoes -14.5306
lfemur -59.7953 5.36212 -18.0553
ltibia 51.7445
lfoot -10.1183 -7.31501
ltoes -12.8259
459
root 1.72487 16.9028 -2.60821 22.4426 -3.64446 -2.49288
lowerback 24.2282 6.81679 -4.06904
upperback 12.2402 7.9787 5.99311
thorax -1.26075 3.57498 6.78128
lowerneck -15.3698 -3.36888 -2.25392
upperneck 22.722 -1.91425 -8.53255
head 9.70482 -1.99786 -2.83652
rclavicle 3.18055e-015 -2.94201e-014
rhumerus 11.2218 6.93973 -72.3415
rradius 31.6259
rwrist -11.8238
rhand -29.408 5.67715
rfingers 7.12502
rthumb -2.74576 -24.2849
lclavicle 3.18055e-015 -2.94201e-014
lhumerus -24.3838 -39.6094 99.7573
lradius 71.1107
lwrist -4.20306
lhand -29.1158 26.6274
lfingers 7.12502
lthumb -2.46356 56.5929
rfemur -54.816 -23.9307 27.4691
rtibia 68.633
rfoot -18.2893 4.53394
rtoes -14.3789
lfemur -58.8286 5.34312 -17.7882
ltibia 50.7143
lfoot -9.9035 -7.20794
ltoes -12.9439
460
root 1.70235 16.956 -2.61319 22.1083 -3.60342 -2.47937
lowerback 23.7849 6.72198 -4.00297
upperback 12.0294 7.89629 5.9135
thorax -1.25331 3.54941 6.70107
lowerneck -15.8875 -3.35451 -2.2092
upperneck 23.2524 -1.92259 -8.21013
head 9.9931 -1.98441 -2.76431
rclavicle 5.40694e-014 1.82882e-014
rhumerus 10.2485 7.38478 -72.562
rradius 32.0081
rwrist -12.1966
rhand -29.2938 5.40766
rfingers 7.12502
rthumb -2.63542 -24.5558
lclavicle 5.40694e-014 1.82882e-014
lhumerus -24.3962 -39.6937 99.8596
lradius 70.3665
lwrist -3.79724
lhand -29.0385 27.0167
lfingers 7.12502
lthumb -2.38888 56.983
rfemur -53.4683 -23.2752 26.6302
rtibia 67.884
rfoot -18.4777 3.94469
rtoes -14.8504
lfemur -57.8604 5.15166 -17.5716
ltibia 49.6742
lfoot -9.52751 -7.11763
ltoes -12.9611
461
root 1.67516 17.011 -2.61975 21.7886 -3.60091 -2.28563
lowerback 23.3201 6.62802 -4.1753
upperback 11.752 7.77074 5.79773
thorax -1.32264 3.49908 6.72564
lowerneck -16.194 -3.2808 -2.15332
upperneck 23.6988 -1.87751 -7.86985
head 10.2149 -1.93613 -2.67103
rclavicle -2.70347e-014 6.36111e-015
rhumerus 9.16739 7.86041 -72.8196
rradius 32.3142
rwrist -12.3306
rhand -29.1716 5.52291
rfingers 7.12502
rthumb -2.51741 -24.442
lclavicle -2.70347e-014 6.36111e-015
lhumerus -24.595 -39.5908 100.075
lradius 69.6688
lwrist -3.53552
lhand -28.613 27.0764
lfingers 7.12502
lthumb -1.97793 57.047
rfemur -52.1414 -22.5097 25.5833
rtibia 67.1091
rfoot -18.6312 3.42927
rtoes -14.6907
lfemur -56.9089 4.96689 -17.5689
ltibia 48.6291
lfoot -9.108 -7.06982
ltoes -12.9571
462
root 1.64538 17.0654 -2.62577 21.4175 -3.62017 -2.1135
lowerback 22.9126 6.55906 -4.44372
upperback 11.4451 7.66071 5.7359
thorax -1.46987 3.45466 6.853
lowerneck -16.3221 -3.18251 -2.06134
upperneck 24.0693 -1.78984 -7.66652
head 10.3763 -1.8752 -2.61861
rclavicle 1.01778e-013 4.77083e-015
rhumerus 8.00034 8.33037 -73.0844
rradius 32.6041
rwrist -12.4399
rhand -29.203 5.63746
rfingers 7.12502
rthumb -2.54778 -24.3271
lclavicle 1.01778e-013 4.77083e-015
lhumerus -24.8964 -39.3784 100.419
lradius 68.8672
lwrist -3.429
lhand -28.1055 27.0515
lfingers 7.12502
lthumb -1.48779 57.0261
rfemur -50.706 -21.637 24.5403
rtibia 66.2681
rfoot -18.8399 2.90966
rtoes -14.0395
lfemur -55.9019 4.84305 -17.5578
ltibia 47.5888
lfoot -8.74099 -7.04655
ltoes -13.1329
463
root 1.61594 17.1119 -2.62966 21.0578 -3.49435 -2.10511
lowerback 22.4534 6.38802 -4.51
upperback 11.1983 7.46273 5.74719
thorax -1.49684 3.36756 6.97769
lowerneck -16.5485 -3.04294 -2.04029
upperneck 24.3687 -1.60584 -7.54172
head 10.5367 -1.78628 -2.56922
rclavicle 2.8625e-014 7.95139e-016
rhumerus 6.98436 8.85317 -73.3764
rradius 32.8613
rwrist -12.6013
rhand -29.2911 5.74579
rfingers 7.12502
rthumb -2.6328 -24.2177
lclavicle 2.8625e-014 7.95139e-016
lhumerus -25.034 -39.1677 100.703
lradius 67.9167
lwrist -3.02952
lhand -27.9557 26.77
lfingers 7.12502
lthumb -1.34311 56.7455
rfemur -49.2535 -20.8507 23.7757
rtibia 65.348
rfoot -18.9316 2.39608
rtoes -14.0282
lfemur -54.9437 4.65904 -17.3319
ltibia 46.5801
lfoot -8.41039 -7.02024
ltoes -13.3777
464
root 1.5839 17.1614 -2.63243 20.7169 -3.35929 -2.13995
lowerback 21.9439 6.18753 -4.56404
upperback 10.9892 7.23025 5.78344
thorax -1.45103 3.26022 7.1368
lowerneck -16.8481 -2.90246 -2.17612
upperneck 24.6774 -1.4109 -7.27269
head 10.7198 -1.69123 -2.44116
rclavicle 1.74931e-014 -1.03368e-014
rhumerus 6.05309 9.42961 -73.6795
rradius 33.0735
rwrist -12.613
rhand -29.2228 6.14536
rfingers 7.12502
rthumb -2.56689 -23.8189
lclavicle 1.74931e-014 -1.03368e-014
lhumerus -25.1347 -38.849 100.98
lradius 67.074
lwrist -2.58768
lhand -27.7793 26.7731
lfingers 7.12502
lthumb -1.17277 56.7496
rfemur -47.7795 -20.0337 23.0995
rtibia 64.3059
rfoot -18.9302 2.13832
rtoes -14.3127
lfemur -54.0002 4.49574 -17.056
ltibia 45.6084
lfoot -8.13444 -6.99342
ltoes -13.353
465
root 1.54789 17.2101 -2.63927 20.3631 -3.27351 -2.14996
lowerback 21.5531 6.08783 -4.56425
upperback 10.7234 7.1277 5.71903
thorax -1.52671 3.22486 7.10637
lowerneck -17.0937 -2.85029 -2.07755
upperneck 25.0228 -1.42017 -6.96079
head 10.8943 -1.66023 -2.36324
rclavicle -7.63333e-014 -1.90833e-014
rhumerus 5.00762 9.70391 -74.1043
rradius 33.2888
rwrist -12.6848
rhand -29.2391 6.5212
rfingers 7.12502
rthumb -2.58262 -23.4429
lclavicle -7.63333e-014 -1.90833e-014
lhumerus -25.3357 -38.8191 101.145
lradius 66.4634
lwrist -2.32479
lhand -27.7689 26.9466
lfingers 7.12502
lthumb -1.16266 56.9232
rfemur -46.2942 -19.0771 22.4071
rtibia 63.1555
rfoot -18.9262 2.04782
rtoes -14.4756
lfemur -53.0685 4.44077 -16.8476
ltibia 44.6742
lfoot -7.86222 -7.03604
ltoes -13.5493
466
root 1.51326 17.2513 -2.64293 20.0294 -3.19908 -2.19772
lowerback 21.1165 6.00803 -4.41645
upperback 10.4349 7.07575 5.59956
thorax -1.58978 3.21996 6.91964
lowerneck -17.2924 -2.83037 -1.86385
upperneck 25.354 -1.50749 -6.675
head 11.0504 -1.65403 -2.32276
rclavicle -6.36111e-014 -2.62396e-014
rhumerus 3.82933 9.68272 -74.5999
rradius 33.5772
rwrist -12.6925
rhand -29.2178 6.54918
rfingers 7.12502
rthumb -2.56207 -23.4152
lclavicle -6.36111e-014 -2.62396e-014
lhumerus -25.5719 -38.9724 101.288
lradius 65.822
lwrist -1.95925
lhand -28.0191 26.9759
lfingers 7.12502
lthumb -1.40434 56.951
rfemur -44.8277 -18.0991 21.8031
rtibia 61.9231
rfoot -18.9655 2.05187
rtoes -15.228
lfemur -52.1607 4.35469 -16.5957
ltibia 43.7559
lfoot -7.6242 -6.98587
ltoes -14.1764
